<?xml version="1.0" encoding="UTF-8" standalone="no"?>
<svg width="100%" height="100%" viewBox="0 0 90 90" version="1.1" xmlns="http://www.w3.org/2000/svg" xmlns:xlink="http://www.w3.org/1999/xlink" xml:space="preserve" xmlns:serif="http://www.serif.com/" style="fill-rule:evenodd;clip-rule:evenodd;stroke-linejoin:round;stroke-miterlimit:2;">
    <style>
        #favicon {
            fiLL: #000;
        }

        @media (prefers-color-scheme: dark) {
          #favicon {
            fill: #fff;
          }
        }
    </style>
    <g id="favicon">
        <path d="M84,18C84,16.409 83.368,14.883 82.243,13.757C81.117,12.632 79.591,12 78,12C63.471,12 26.529,12 12,12C10.409,12 8.883,12.632 7.757,13.757C6.632,14.883 6,16.409 6,18C6,34.268 6,78 6,78L84,78L84,18ZM78.034,29.982L11.966,29.982L11.966,72.005L78.034,72.005L78.034,29.982Z"/>
        <path d="M21.582,49.021L28.248,40.397C29.194,39.173 30.956,38.947 32.181,39.894C33.405,40.84 33.631,42.603 32.685,43.827L27.313,50.776L32.685,57.726C33.631,58.95 33.405,60.713 32.181,61.659C30.956,62.606 29.194,62.38 28.248,61.156L21.582,52.532C21.475,52.398 21.381,52.257 21.302,52.109L21.291,52.089C21.072,51.676 20.965,51.225 20.965,50.776C20.965,50.328 21.072,49.877 21.291,49.464L21.302,49.444C21.381,49.296 21.475,49.155 21.582,49.021Z"/>
        <g transform="matrix(-1,0,0,1,90.2352,0)">
            <path d="M21.582,49.021L28.248,40.397C29.194,39.173 30.956,38.947 32.181,39.894C33.405,40.84 33.631,42.603 32.685,43.827L27.313,50.776L32.685,57.726C33.631,58.95 33.405,60.713 32.181,61.659C30.956,62.606 29.194,62.38 28.248,61.156L21.582,52.532C21.475,52.398 21.381,52.257 21.302,52.109L21.291,52.089C21.072,51.676 20.965,51.225 20.965,50.776C20.965,50.328 21.072,49.877 21.291,49.464L21.302,49.444C21.381,49.296 21.475,49.155 21.582,49.021Z"/>
        </g>
        <g transform="matrix(1,0,0,1,-0.0182962,0.398398)">
            <path d="M44.869,62.929L50.841,39.196C51.219,37.695 50.307,36.17 48.807,35.793C47.306,35.415 45.781,36.327 45.403,37.827L39.43,61.56C39.053,63.061 39.964,64.586 41.465,64.964C42.966,65.341 44.491,64.43 44.869,62.929Z"/>
        </g>
    </g>
</svg>
